<svg xmlns="http://www.w3.org/2000/svg" viewBox="0 0 64 64"><defs><clipPath id="a"><rect width="32" height="64"/></clipPath><clipPath id="b"><rect x="32" width="32" height="64"/></clipPath></defs><rect width="64" height="64" rx="0" fill="#0b0b0c"/><path d="M13.9 52.75V41.84H17.81Q18.71 47.02 22.03 49.58Q25.36 52.13 31.25 52.13Q36.02 52.13 38.52 50.32Q41.01 48.5 41.01 44.99Q41.01 42.21 39.32 40.67Q37.62 39.13 32.32 37.81L25.42 36.11Q18.67 34.39 15.93 31.32Q13.19 28.26 13.19 22.59Q13.19 15.75 17.73 11.94Q22.28 8.14 30.47 8.14Q34.51 8.14 38.87 8.82Q43.23 9.49 47.91 10.85V21.02H44Q43.11 16.27 40.09 14.07Q37.07 11.87 31.49 11.87Q26.93 11.87 24.61 13.45Q22.28 15.04 22.28 18.18Q22.28 21.05 23.88 22.54Q25.48 24.04 31.74 25.64L38.64 27.33Q45.05 28.93 47.93 32.32Q50.81 35.71 50.81 41.66Q50.81 48.62 46 52.24Q41.2 55.86 31.86 55.86Q27.36 55.86 22.93 55.09Q18.49 54.32 13.9 52.75Z" fill="#e8a33d" clip-path="url(#a)"/><path d="M13.9 52.75V41.84H17.81Q18.71 47.02 22.03 49.58Q25.36 52.13 31.25 52.13Q36.02 52.13 38.52 50.32Q41.01 48.5 41.01 44.99Q41.01 42.21 39.32 40.67Q37.62 39.13 32.32 37.81L25.42 36.11Q18.67 34.39 15.93 31.32Q13.19 28.26 13.19 22.59Q13.19 15.75 17.73 11.94Q22.28 8.14 30.47 8.14Q34.51 8.14 38.87 8.82Q43.23 9.49 47.91 10.85V21.02H44Q43.11 16.27 40.09 14.07Q37.07 11.87 31.49 11.87Q26.93 11.87 24.61 13.45Q22.28 15.04 22.28 18.18Q22.28 21.05 23.88 22.54Q25.48 24.04 31.74 25.64L38.64 27.33Q45.05 28.93 47.93 32.32Q50.81 35.71 50.81 41.66Q50.81 48.62 46 52.24Q41.2 55.86 31.86 55.86Q27.36 55.86 22.93 55.09Q18.49 54.32 13.9 52.75Z" fill="#f5f5f5" clip-path="url(#b)"/></svg>